<svg xmlns="http://www.w3.org/2000/svg" viewBox="0 0 950 950"><defs><style>.cls-1,.cls-2{fill:#fff;}.cls-1,.cls-4,.cls-7,.cls-8,.cls-9{stroke:#231f20;stroke-miterlimit:10;}.cls-1,.cls-7,.cls-8,.cls-9{stroke-width:8px;}.cls-3{fill:#231f20;}.cls-4{fill:#d0d2d3;stroke-width:5px;}.cls-5,.cls-9{fill:#808184;}.cls-6,.cls-7{fill:#3b71af;}.cls-8{fill:#6d6e70;}</style></defs><g id="Layer_9" data-name="Layer 9"><circle class="cls-1" cx="475" cy="474.21" r="330.06"/><path class="cls-2" d="M445.43,749.67,419,676.52a202.46,202.46,0,0,1-26.87-8.73l-.39.27-62.21,42.2-1.74,1.19-1.7-1.24L292,685.4l-1.7-1.24.52-2.07c3.64-12.62,21.06-72.78,21.06-72.78a204,204,0,0,1-16.54-22.73q-36.4-1.2-72.81-2.36l-5-.16-14.37-44.23L264.66,492c-.31-4.67-.47-9.34-.47-13.93s.16-9.43.48-14.12l-61.54-47.81,14.37-44.22,2.1-.07q37.92-1.25,75.82-2.45a204.71,204.71,0,0,1,16.47-22.61L290.2,271.88l1.7-1.24q17.1-12.43,34.22-24.86l1.7-1.24,1.74,1.18,57,38.66,5.8,3.94A202.14,202.14,0,0,1,419,279.68c8.58-23.8,26.47-73.35,26.47-73.35h46.51s18,50,26.47,73.34A202.67,202.67,0,0,1,545,288.32l6.21-4.21,56.57-38.39,1.74-1.18,34.68,25.19-18.77,77a203.77,203.77,0,0,1,16.47,22.61l76.58-.14,15.75,46.89L672.71,464c.31,4.69.47,9.42.47,14.12s-.15,9.27-.47,13.93l61.54,47.81-14.38,44.23-4.84.16q-36.48,1.17-73,2.36a203.61,203.61,0,0,1-16.53,22.73c3.61,12.51,21.64,74.8,21.64,74.8l-4.09,3-31.82,23.13-1.71,1.24-1.74-1.19L545.7,668.12l-.49-.33a201.52,201.52,0,0,1-26.87,8.73l-.1.3q-12.8,35.43-25.58,70.87l-.72,2Z"/><path class="cls-3" d="M489.84,209.33q13,36.06,26,72.13H513A198.81,198.81,0,0,1,548.38,293L546,291.26q31.74-21.52,63.45-43.06L640.84,271q-9.23,37.88-18.45,75.74l-2.48-1.79a201.63,201.63,0,0,1,22,30.15l-.87-2.69,75.32-.14q7.2,21.44,14.39,42.83l-60.55,47.05-.84-2.56c.55,6.09.84,12.28.84,18.52s-.29,12.25-.83,18.27l.83-2.51,60.55,47.06q-6.53,20.12-13.07,40.22-38.32,1.23-76.64,2.48l.75-2.32a198.93,198.93,0,0,1-21.44,29.46l2-1.48Q633,646.1,643.71,682.92q-17.1,12.44-34.22,24.86l-63.45-43,1.7-1.24a199.07,199.07,0,0,1-34,11h2.14q-13,36.06-26,72.13h-42.3l-26-72.13h2.16a199.11,199.11,0,0,1-34-11l1.71,1.24-63.45,43q-17.11-12.42-34.21-24.86Q304.32,646.1,315,609.27l2,1.48a200.38,200.38,0,0,1-21.44-29.46l.76,2.32q-38.33-1.26-76.65-2.48-6.52-20.11-13.07-40.22l60.56-47.06.82,2.51q-.81-9-.82-18.27c0-6.24.28-12.43.83-18.52l-.83,2.56-60.56-47.05q6.52-20.11,13.07-40.21,38.32-1.26,76.65-2.48l-.88,2.69a201.63,201.63,0,0,1,22-30.15L315,346.72q-10.65-36.83-21.31-73.65l34.21-24.87,63.45,43.06L389,293a199.28,199.28,0,0,1,35.45-11.51H421.5l26-72.13h42.3m4.21-6H443.32l-1.43,4q-12.6,34.94-25.21,69.87a205.59,205.59,0,0,0-24,7.78l-61.46-41.7-3.49-2.37-3.41,2.48-34.21,24.86-3.41,2.48,1.17,4q5.34,18.47,10.69,36.93,5,17.22,10,34.45a209.14,209.14,0,0,0-14.82,20.36q-37.11,1.2-74.23,2.4l-4.21.14-1.3,4-5.28,16.23-7.8,24-1.3,4,3.33,2.59,6.07,4.72,52.55,40.83c-.25,4.23-.38,8.48-.38,12.72s.13,8.34.38,12.53l-33.81,26.27L203,536.17l-3.33,2.58,1.3,4q3.29,10.08,6.55,20.16T214,583l1.3,4,4.21.14,2.23.07,71.88,2.32A207,207,0,0,0,308.52,610q-5,17.24-10,34.48-5.31,18.39-10.64,36.76l-1.17,4,3.41,2.47.77.57,33.44,24.3,3.41,2.47,3.49-2.36,61.28-41.58A206.7,206.7,0,0,0,416.75,679q12.57,34.82,25.14,69.67l1.43,4h50.73l1.43-4L520.62,679a205.49,205.49,0,0,0,24.22-7.87l61.28,41.58,3.49,2.36,3.41-2.47,34.06-24.75.15-.12,3.41-2.47-1.17-4q-5.36-18.48-10.7-37-5-17.13-9.92-34.26a207,207,0,0,0,14.9-20.49l71.89-2.32,2.22-.07,4.22-.14,1.3-4q3.23-9.93,6.46-19.88,3.3-10.17,6.61-20.34l1.3-4-3.33-2.58-24.81-19.28-33.8-26.27c.25-4.19.38-8.39.38-12.53s-.13-8.49-.39-12.72l52.55-40.83,6.07-4.72,3.37-2.62-1.36-4-.25-.75q-7.08-21-14.14-42.08l-1.38-4.09h-4.32l-37.7.07-35.06.07A208.35,208.35,0,0,0,628.73,346q3.66-15,7.33-30.07,5.31-21.78,10.61-43.55l1-3.91-3.26-2.37-2-1.48L613,243.35l-3.41-2.48-3.49,2.37q-30.71,20.85-61.46,41.7a204.77,204.77,0,0,0-24-7.78q-12.06-33.42-24.11-66.8l-1.11-3.07-1.43-4Z"/><path class="cls-4" d="M515.87,281.46H513A198.81,198.81,0,0,1,548.38,293L546,291.26q31.74-21.52,63.45-43.06L640.84,271q-9.23,37.88-18.45,75.74l-2.48-1.79a201.63,201.63,0,0,1,22,30.15l-.87-2.69,75.32-.14q7.2,21.44,14.39,42.83l-60.55,47.05-.84-2.56c.55,6.09.84,12.28.84,18.52s-.29,12.25-.83,18.27l.83-2.51,60.55,47.06q-6.53,20.12-13.07,40.22-38.32,1.23-76.64,2.48l.75-2.32a198.93,198.93,0,0,1-21.44,29.46l2-1.48Q633,646.1,643.71,682.92q-17.1,12.44-34.22,24.86l-63.45-43,1.7-1.24a199.07,199.07,0,0,1-34,11h2.14q-13,36.06-26,72.13h-42.3l-26-72.13h2.16a199.11,199.11,0,0,1-34-11l1.71,1.24-63.45,43q-17.11-12.42-34.21-24.86Q304.32,646.1,315,609.27l2,1.48a200.38,200.38,0,0,1-21.44-29.46l.76,2.32q-38.33-1.26-76.65-2.48-6.52-20.11-13.07-40.22l60.56-47.06.82,2.51q-.81-9-.82-18.27c0-6.24.28-12.43.83-18.52l-.83,2.56-60.56-47.05q6.52-20.11,13.07-40.21,38.32-1.26,76.65-2.48l-.88,2.69a201.63,201.63,0,0,1,22-30.15L315,346.72q-10.65-36.83-21.31-73.65l34.21-24.87,63.45,43.06L389,293a199.28,199.28,0,0,1,35.45-11.51H421.5l26-72.13h42.3Q502.85,245.39,515.87,281.46Z"/><rect class="cls-5" x="383.12" y="711.29" width="88.32" height="23.01"/><path class="cls-3" d="M468.94,713.79v18H385.62v-18h83.32m5-5H380.62v28h93.32v-28Z"/><rect class="cls-5" x="400.58" y="652.37" width="70.86" height="23.01"/><path class="cls-3" d="M468.94,654.87v18H403.08v-18h65.86m5-5H398.08v28h75.86v-28Z"/><rect class="cls-6" x="466.54" y="711.29" width="88.32" height="23.01"/><path class="cls-3" d="M552.36,713.79v18H469v-18h83.32m5-5H464v28h93.32v-28Z"/><rect class="cls-6" x="466.54" y="652.37" width="75.26" height="23.01"/><path class="cls-3" d="M539.31,654.87v18H469v-18h70.27m5-5H464v28h80.27v-28Z"/><rect class="cls-6" x="463.54" y="222.19" width="88.32" height="23.01"/><path class="cls-3" d="M549.36,224.69v18H466v-18h83.32m5-5H461v28h93.32v-28Z"/><rect class="cls-6" x="463.54" y="281.11" width="70.86" height="23.01"/><path class="cls-3" d="M531.9,283.61v18H466v-18H531.9m5-5H461v28H536.9v-28Z"/><rect class="cls-5" x="380.12" y="222.19" width="88.32" height="23.01"/><path class="cls-3" d="M465.94,224.69v18H382.62v-18h83.32m5-5H377.62v28h93.32v-28Z"/><rect class="cls-5" x="393.18" y="281.11" width="75.26" height="23.01"/><path class="cls-3" d="M465.94,283.61v18H395.68v-18h70.26m5-5H390.68v28h80.26v-28Z"/><rect class="cls-5" x="467.54" y="461.19" width="88.32" height="23.01"/><path class="cls-3" d="M553.36,463.69v18H470v-18h83.32m5-5H465v28h93.32v-28Z"/><rect class="cls-5" x="467.54" y="520.11" width="70.86" height="23.01"/><path class="cls-3" d="M535.9,522.61v18H470v-18H535.9m5-5H465v28H540.9v-28Z"/><rect class="cls-5" x="467.54" y="403.37" width="70.86" height="23.01"/><path class="cls-3" d="M535.9,405.87v18H470v-18H535.9m5-5H465v28H540.9v-28Z"/><rect class="cls-6" x="384.12" y="461.19" width="88.32" height="23.01"/><path class="cls-3" d="M469.94,463.69v18H386.62v-18h83.32m5-5H381.62v28h93.32v-28Z"/><rect class="cls-6" x="397.18" y="520.11" width="75.26" height="23.01"/><path class="cls-3" d="M469.94,522.61v18H399.68v-18h70.26m5-5H394.68v28h80.26v-28Z"/><rect class="cls-6" x="401.58" y="403.37" width="70.86" height="23.01"/><path class="cls-3" d="M469.94,405.87v18H404.08v-18h65.86m5-5H399.08v28h75.86v-28Z"/><path class="cls-7" d="M586.93,258c5.29-46.3-14.62-81.35-21.76-92.72a182.64,182.64,0,0,0-49.65,13.34c8.08,8.76,27.62,32.53,26.37,63.84-2,50.09-55.73,81.26-72.89,88.68-1.41.61-2.82,1.2-4.25,1.79-11.53,4.75-31.39,10.31-50.78,23.47-1.2.81-2.41,1.66-3.61,2.54-31.49,23.09-59.3,64-59.3,115.06,0,49.56,26.05,93.29,59.3,115.39,1.2.8,2.4,1.57,3.59,2.3,1.41-.87,2.85-1.74,4.32-2.59,16-9.29,33.85-16.46,50.73-24.27-36.58-16.93-68.67-36.85-68.2-87.9.5-54,25.64-72.91,68.2-93.9,14.88-7.34,31.9-14.94,50.73-24.38q2.19-1.1,4.29-2.25s18.15-10,32.52-26.38C568.94,315.85,583.28,289.88,586.93,258Z"/><path class="cls-7" d="M536.54,739.06c-5.21,39.64-27.55,65.52-36.78,75.11,4.17,4.92,8.81,10,14,15.2a261,261,0,0,0,21.58,19.39c12.5-13.12,42.46-48.19,49.93-101.93,2.36-17,8.57-61.81-18.14-105.67A144.44,144.44,0,0,0,521,594.65c-20.36,12.7-40.36,18.29-55,24.06,9.3,3.26,40.07,15.33,58.62,47.83C541.69,696.43,538.33,725.41,536.54,739.06Z"/><path class="cls-8" d="M355.51,688.05c-5.3,46.3,14.62,81.35,21.75,92.72a182.83,182.83,0,0,0,49.65-13.33c-8.07-8.76-27.61-32.54-26.36-63.85,2-50.09,55.72-81.25,72.89-88.68,1.41-.61,2.82-1.2,4.25-1.79,11.53-4.75,31.39-10.31,50.78-23.47,1.2-.81,2.41-1.66,3.61-2.54,31.49-23.09,59.3-64,59.3-115.06,0-49.56-26-93.29-59.3-115.39-1.2-.8-2.4-1.57-3.59-2.3-1.41.87-2.85,1.74-4.32,2.59-16,9.29-33.85,16.46-50.73,24.27,36.58,16.93,68.67,36.85,68.2,87.9-.5,54-25.64,72.91-68.2,93.9-14.88,7.34-31.9,14.94-50.73,24.38q-2.19,1.1-4.29,2.25s-18.15,10-32.52,26.39C360.82,644.61,356.81,676.67,355.51,688.05Z"/><path class="cls-9" d="M395.46,210.94c5.21-39.64,27.55-65.52,36.78-75.11-4.65-5.49-9.93-11.26-15.9-17.14a258.52,258.52,0,0,0-19.64-17.45c-12.5,13.12-42.46,48.19-49.93,101.93-2.36,17-8.57,61.81,18.14,105.67a144.44,144.44,0,0,0,46,46.51c20.36-12.7,40.36-18.29,55-24.06-9.3-3.26-40.07-15.33-58.62-47.83C390.32,253.57,393.67,224.59,395.46,210.94Z"/></g></svg>