<svg xmlns="http://www.w3.org/2000/svg" viewBox="0 0 2292 1042"><defs><style>.cls-1,.cls-2{fill:#fff;}.cls-1,.cls-10,.cls-4,.cls-7,.cls-8,.cls-9{stroke:#231f20;stroke-miterlimit:10;}.cls-1,.cls-7,.cls-8,.cls-9{stroke-width:8px;}.cls-10,.cls-3{fill:#231f20;}.cls-4{fill:#d0d2d3;stroke-width:5px;}.cls-5,.cls-9{fill:#808184;}.cls-6,.cls-7{fill:#3b71af;}.cls-8{fill:#6d6e70;}.cls-10{stroke-width:2px;}</style></defs><g id="Layer_10" data-name="Layer 10"><circle class="cls-1" cx="471.43" cy="520.21" r="330.06"/><path class="cls-2" d="M441.86,795.67l-.72-2q-12.84-35.6-25.69-71.17a202.33,202.33,0,0,1-26.86-8.73L326,756.26l-1.74,1.19-1.71-1.24-34.21-24.86-1.71-1.24,21.65-74.8a203.12,203.12,0,0,1-16.54-22.73l-72.63-2.35-5.18-.17-14.37-44.23L261.09,538c-.32-4.67-.48-9.33-.48-13.93s.16-9.43.48-14.12l-61.54-47.81,14.38-44.22,2.1-.07q37.91-1.25,75.82-2.45a204.62,204.62,0,0,1,16.46-22.61l-21.69-74.93,1.71-1.24q17.1-12.43,34.21-24.86l1.71-1.24,1.74,1.18,62.78,42.6a202,202,0,0,1,26.61-8.64c8.11-22.48,26.48-73.35,26.48-73.35h46.51l26.47,73.34a203.16,203.16,0,0,1,26.62,8.65l62.77-42.6,1.75-1.18,34.67,25.19-18.76,77a206,206,0,0,1,16.47,22.61l76.57-.14,15.76,46.89L669.13,510c.32,4.69.48,9.42.48,14.12s-.16,9.26-.47,13.93l61.53,47.81L716.3,630.06l-5.17.17-72.64,2.35A203.12,203.12,0,0,1,622,655.31l21.65,74.8-1.7,1.24-34.22,24.86-1.7,1.24-1.75-1.19-62.6-42.47a201.39,201.39,0,0,1-26.86,8.73q-12.84,35.58-25.69,71.17l-.71,2Z"/><path class="cls-3" d="M486.26,255.33q13,36.06,26,72.13h-2.92A198.91,198.91,0,0,1,544.81,339l-2.35-1.71,63.46-43.06L637.26,317q-9.21,37.88-18.45,75.74l-2.48-1.79a201.69,201.69,0,0,1,22,30.15l-.88-2.69,75.33-.14q7.19,21.44,14.39,42.83l-60.56,47.05-.84-2.56c.56,6.09.84,12.28.84,18.52s-.28,12.25-.82,18.27l.82-2.51,60.56,47.06Q720.63,607,714.1,627.13q-38.33,1.23-76.65,2.48l.76-2.32a200.38,200.38,0,0,1-21.44,29.46l2-1.48q10.66,36.83,21.32,73.65-17.1,12.44-34.21,24.86l-63.46-43,1.7-1.24a198.5,198.5,0,0,1-34,11h2.14q-13,36.06-26,72.13H444q-13-36.07-26-72.13h2.15a199.29,199.29,0,0,1-34-11l1.71,1.24-63.46,43q-17.12-12.42-34.21-24.86,10.65-36.82,21.32-73.65l2,1.48A198.93,198.93,0,0,1,292,627.29l.75,2.32q-38.32-1.26-76.64-2.48-6.54-20.11-13.07-40.22l60.55-47.06.83,2.51c-.54-6-.83-12.11-.83-18.27s.29-12.43.84-18.52l-.84,2.56-60.55-47.05q6.52-20.11,13.07-40.21,38.33-1.26,76.64-2.48l-.87,2.69a201.63,201.63,0,0,1,22-30.15l-2.48,1.79q-10.65-36.83-21.32-73.65L324.3,294.2l63.46,43.06L385.41,339a199.12,199.12,0,0,1,35.46-11.51h-2.94q13-36.07,26-72.13h42.3m4.21-6H439.75l-1.43,4L413.1,323.16a206.05,206.05,0,0,0-24,7.78l-61.47-41.7-3.48-2.37-3.41,2.48-34.22,24.86-3.4,2.48,1.17,4q5.32,18.45,10.68,36.89,5,17.25,10,34.49a205.85,205.85,0,0,0-14.82,20.36l-74.24,2.4-4.21.14-1.3,4-5.26,16.19q-3.91,12-7.81,24l-1.3,4,3.33,2.59L258,511.37c-.26,4.23-.39,8.49-.39,12.72s.13,8.34.38,12.53l-33.8,26.27-24.81,19.28-3.33,2.58,1.3,4q3.27,10.08,6.55,20.16T210.42,629l1.3,4,4.21.14,2.18.07,71.94,2.32A207,207,0,0,0,305,656q-5,17.24-10,34.48-5.33,18.38-10.64,36.76l-1.17,4,3.4,2.47.79.58,33.43,24.29,3.41,2.47,3.48-2.36L389,717.17A207.93,207.93,0,0,0,413.17,725q12.58,34.83,25.15,69.67l1.43,4h50.72l1.43-4q11.76-32.57,23.5-65.11l1.65-4.56a206.7,206.7,0,0,0,24.22-7.87l61.28,41.58,3.49,2.36,3.4-2.47,33.43-24.29.79-.58,3.41-2.47-1.17-4-10.44-36.07q-5.1-17.58-10.19-35.17a205.51,205.51,0,0,0,14.91-20.49l71.94-2.32,2.17-.07,4.21-.14,1.3-4q3.26-10,6.52-20.06t6.55-20.16l1.3-4-3.32-2.58L706,562.89l-33.8-26.27c.25-4.19.38-8.39.38-12.53s-.13-8.49-.38-12.72l58.62-45.55,3.36-2.62-1.36-4q-7.19-21.41-14.39-42.83l-1.37-4.09h-4.32l-37.71.07-35.06.07A206.62,206.62,0,0,0,625.16,392l7.47-30.68q5.24-21.46,10.46-42.94l.95-3.91-3.25-2.37-.25-.18-31.09-22.59L606,286.87l-3.49,2.37-61.46,41.7a204.93,204.93,0,0,0-24-7.78Q505.54,291.07,494,259l-2.07-5.72-1.43-4Z"/><path class="cls-4" d="M512.29,327.46h-2.92A198.91,198.91,0,0,1,544.81,339l-2.34-1.71,63.45-43.06L637.26,317q-9.21,37.88-18.45,75.74l-2.48-1.79a201.69,201.69,0,0,1,22,30.15l-.88-2.69,75.33-.14q7.19,21.44,14.39,42.83l-60.56,47.05-.84-2.56c.56,6.09.84,12.28.84,18.52s-.28,12.25-.82,18.27l.82-2.51,60.56,47.06Q720.63,607,714.1,627.13q-38.33,1.23-76.65,2.48l.75-2.32a199.59,199.59,0,0,1-21.43,29.46l2-1.48q10.66,36.83,21.32,73.65-17.1,12.44-34.21,24.86l-63.45-43,1.69-1.24a198.5,198.5,0,0,1-34,11h2.14q-13,36.06-26,72.13H444q-13-36.07-26-72.13h2.16a199.11,199.11,0,0,1-34-11l1.71,1.24-63.46,43q-17.12-12.42-34.21-24.86,10.65-36.82,21.32-73.65l2,1.48A198.93,198.93,0,0,1,292,627.29l.75,2.32q-38.32-1.26-76.64-2.48-6.52-20.11-13.07-40.22l60.55-47.06.83,2.51c-.54-6-.83-12.11-.83-18.27s.29-12.43.84-18.52l-.84,2.56-60.55-47.05q6.52-20.11,13.07-40.21,38.33-1.26,76.64-2.48l-.87,2.69a201.63,201.63,0,0,1,22-30.15l-2.48,1.79q-10.65-36.83-21.32-73.65L324.3,294.2l63.46,43.06L385.41,339a199.12,199.12,0,0,1,35.46-11.51h-2.94q13-36.07,26-72.13h42.3Q499.28,291.39,512.29,327.46Z"/><rect class="cls-5" x="379.55" y="757.29" width="88.32" height="23.01"/><path class="cls-3" d="M465.37,759.79v18H382.05v-18h83.32m5-5H377.05v28h93.32v-28Z"/><rect class="cls-5" x="397.01" y="698.37" width="70.86" height="23.01"/><path class="cls-3" d="M465.37,700.87v18H399.51v-18h65.86m5-5H394.51v28h75.86v-28Z"/><rect class="cls-6" x="462.97" y="757.29" width="88.32" height="23.01"/><path class="cls-3" d="M548.79,759.79v18H465.47v-18h83.32m5-5H460.47v28h93.32v-28Z"/><rect class="cls-6" x="462.97" y="698.37" width="75.26" height="23.01"/><path class="cls-3" d="M535.73,700.87v18H465.47v-18h70.26m5-5H460.47v28h80.26v-28Z"/><rect class="cls-6" x="459.97" y="268.19" width="88.32" height="23.01"/><path class="cls-3" d="M545.79,270.69v18H462.47v-18h83.32m5-5H457.47v28h93.32v-28Z"/><rect class="cls-6" x="459.97" y="327.11" width="70.86" height="23.01"/><path class="cls-3" d="M528.33,329.61v18H462.47v-18h65.86m5-5H457.47v28h75.86v-28Z"/><rect class="cls-5" x="376.55" y="268.19" width="88.32" height="23.01"/><path class="cls-3" d="M462.37,270.69v18H379.05v-18h83.32m5-5H374.05v28h93.32v-28Z"/><rect class="cls-5" x="389.6" y="327.11" width="75.26" height="23.01"/><path class="cls-3" d="M462.37,329.61v18H392.1v-18h70.27m5-5H387.1v28h80.27v-28Z"/><rect class="cls-5" x="463.97" y="507.19" width="88.32" height="23.01"/><path class="cls-3" d="M549.79,509.69v18H466.47v-18h83.32m5-5H461.47v28h93.32v-28Z"/><rect class="cls-5" x="463.97" y="566.11" width="70.86" height="23.01"/><path class="cls-3" d="M532.33,568.61v18H466.47v-18h65.86m5-5H461.47v28h75.86v-28Z"/><rect class="cls-5" x="463.97" y="449.37" width="70.86" height="23.01"/><path class="cls-3" d="M532.33,451.87v18H466.47v-18h65.86m5-5H461.47v28h75.86v-28Z"/><rect class="cls-6" x="380.55" y="507.19" width="88.32" height="23.01"/><path class="cls-3" d="M466.37,509.69v18H383.05v-18h83.32m5-5H378.05v28h93.32v-28Z"/><rect class="cls-6" x="393.6" y="566.11" width="75.26" height="23.01"/><path class="cls-3" d="M466.37,568.61v18H396.1v-18h70.27m5-5H391.1v28h80.27v-28Z"/><rect class="cls-6" x="398.01" y="449.37" width="70.86" height="23.01"/><path class="cls-3" d="M466.37,451.87v18H400.51v-18h65.86m5-5H395.51v28h75.86v-28Z"/><path class="cls-7" d="M583.36,304c5.29-46.3-14.63-81.35-21.76-92.72A182.39,182.39,0,0,0,512,224.58c8.07,8.76,27.62,32.53,26.37,63.84-2,50.09-55.73,81.26-72.89,88.68-1.41.61-2.82,1.2-4.25,1.79-11.53,4.75-31.39,10.31-50.78,23.47-1.2.81-2.41,1.66-3.61,2.54-31.49,23.09-59.3,64-59.3,115.06,0,49.56,26.05,93.29,59.3,115.39,1.2.8,2.4,1.57,3.59,2.3,1.41-.87,2.85-1.74,4.32-2.59,16-9.29,33.85-16.46,50.73-24.27-36.58-16.93-68.67-36.85-68.2-87.9.5-54,25.64-72.91,68.2-93.9,14.88-7.34,31.9-14.94,50.73-24.38q2.19-1.1,4.29-2.25S538.6,392.35,553,376C565.37,361.85,579.71,335.88,583.36,304Z"/><path class="cls-7" d="M533,785.06c-5.2,39.64-27.55,65.52-36.78,75.11,4.17,4.92,8.82,10,14,15.2a262.54,262.54,0,0,0,21.57,19.39c12.51-13.12,42.46-48.19,49.93-101.93,2.36-17,8.58-61.81-18.13-105.67a144.53,144.53,0,0,0-46-46.51c-20.36,12.7-40.36,18.29-55,24.06,9.29,3.26,40.06,15.33,58.62,47.83C538.11,742.43,534.75,771.41,533,785.06Z"/><path class="cls-8" d="M351.93,734.05c-5.29,46.3,14.62,81.35,21.76,92.72a183.09,183.09,0,0,0,49.65-13.33c-8.08-8.76-27.62-32.54-26.37-63.85,2-50.09,55.73-81.25,72.89-88.68,1.41-.61,2.82-1.2,4.25-1.79,11.53-4.75,31.39-10.31,50.78-23.47,1.2-.81,2.41-1.66,3.61-2.54,31.49-23.09,59.3-64,59.3-115.06,0-49.56-26-93.29-59.3-115.39-1.2-.8-2.4-1.57-3.59-2.3-1.41.87-2.85,1.74-4.32,2.59-16,9.29-33.85,16.46-50.73,24.27,36.58,16.93,68.67,36.85,68.2,87.9-.5,54-25.64,72.91-68.2,93.9C455,616.36,438,624,419.13,633.4q-2.19,1.1-4.29,2.25s-18.15,10-32.52,26.39C357.25,690.61,353.23,722.67,351.93,734.05Z"/><path class="cls-9" d="M391.89,256.94c5.2-39.64,27.55-65.52,36.78-75.11-4.65-5.49-9.93-11.26-15.9-17.14a258.52,258.52,0,0,0-19.64-17.45c-12.51,13.12-42.46,48.19-49.93,101.93-2.36,17-8.58,61.81,18.13,105.67a144.54,144.54,0,0,0,46.06,46.51c20.36-12.7,40.36-18.29,55-24.06-9.3-3.26-40.07-15.33-58.63-47.83C386.74,299.57,390.1,270.59,391.89,256.94Z"/><path class="cls-10" d="M999.48,458.81a2.24,2.24,0,0,1,1.64.68l3.84,4.13a65.8,65.8,0,0,1-9.17,8.11,55.69,55.69,0,0,1-10.85,6.14,64,64,0,0,1-13,3.94,80.83,80.83,0,0,1-15.5,1.39,66.06,66.06,0,0,1-25.88-4.95,57.77,57.77,0,0,1-20.2-14,63.37,63.37,0,0,1-13.11-21.94,83.62,83.62,0,0,1-4.65-28.6,79.64,79.64,0,0,1,4.8-28.23,64.78,64.78,0,0,1,13.44-21.93,59.53,59.53,0,0,1,20.73-14.21,68.75,68.75,0,0,1,26.69-5A65.78,65.78,0,0,1,983,348.61a66.51,66.51,0,0,1,19.59,12.19l-3,4.32a2.67,2.67,0,0,1-2.4,1.15c-.77,0-2-.7-3.74-2.11a50,50,0,0,0-7.2-4.66,61.26,61.26,0,0,0-11.48-4.65,56.25,56.25,0,0,0-16.46-2.12A58.31,58.31,0,0,0,935.79,357a49.77,49.77,0,0,0-17.57,12.09,55.63,55.63,0,0,0-11.47,19.2,80.85,80.85,0,0,0,0,51.17,56,56,0,0,0,11.47,19.16,49.68,49.68,0,0,0,17.23,12A54.88,54.88,0,0,0,957,474.75a78.94,78.94,0,0,0,13-1,51.05,51.05,0,0,0,10.52-2.88,47.58,47.58,0,0,0,8.92-4.7,67.25,67.25,0,0,0,8.16-6.53,5.85,5.85,0,0,1,1-.63A2.27,2.27,0,0,1,999.48,458.81Z"/><path class="cls-10" d="M1105.47,473.31v8.35h-74.21V345.82h9.89V473.31Z"/><path class="cls-10" d="M1240.83,413.7a82.25,82.25,0,0,1-4.71,28.55,63.23,63.23,0,0,1-13.24,21.89,58.55,58.55,0,0,1-20.5,14,72.64,72.64,0,0,1-52.66,0,58.72,58.72,0,0,1-20.45-14A63.23,63.23,0,0,1,1116,442.25a88.64,88.64,0,0,1,0-57,63.32,63.32,0,0,1,13.24-21.89,59.23,59.23,0,0,1,20.45-14.06,67.37,67.37,0,0,1,26.31-5,68.4,68.4,0,0,1,26.35,4.94,58.39,58.39,0,0,1,20.5,14.06,63.92,63.92,0,0,1,13.24,21.94A82,82,0,0,1,1240.83,413.7Zm-10.18,0a77.33,77.33,0,0,0-3.94-25.54,54.53,54.53,0,0,0-11.13-19.2,48.06,48.06,0,0,0-17.28-12,61.17,61.17,0,0,0-44.45,0,48.51,48.51,0,0,0-17.33,12,54.87,54.87,0,0,0-11.23,19.2,84.06,84.06,0,0,0,0,51.12,54.91,54.91,0,0,0,11.23,19.15,47.89,47.89,0,0,0,17.33,12,61.87,61.87,0,0,0,44.45,0,47.45,47.45,0,0,0,17.28-12,54.57,54.57,0,0,0,11.13-19.15A77.24,77.24,0,0,0,1230.65,413.7Z"/><path class="cls-10" d="M1370.14,458.81a2.22,2.22,0,0,1,1.63.68l3.84,4.13a65.24,65.24,0,0,1-9.17,8.11,55.69,55.69,0,0,1-10.85,6.14,63.6,63.6,0,0,1-13,3.94,80.83,80.83,0,0,1-15.5,1.39,66,66,0,0,1-25.87-4.95,57.8,57.8,0,0,1-20.21-14,63.52,63.52,0,0,1-13.11-21.94,83.62,83.62,0,0,1-4.65-28.6,79.64,79.64,0,0,1,4.8-28.23,64.78,64.78,0,0,1,13.44-21.93,59.53,59.53,0,0,1,20.73-14.21,68.75,68.75,0,0,1,26.69-5,65.74,65.74,0,0,1,24.67,4.32,66.51,66.51,0,0,1,19.59,12.19l-3,4.32a2.67,2.67,0,0,1-2.4,1.15c-.77,0-2-.7-3.74-2.11a50,50,0,0,0-7.2-4.66,61.14,61.14,0,0,0-11.47-4.65,56.37,56.37,0,0,0-16.47-2.12,58.34,58.34,0,0,0-22.51,4.23,49.77,49.77,0,0,0-17.57,12.09,55.79,55.79,0,0,0-11.47,19.2,80.85,80.85,0,0,0,0,51.17,56.16,56.16,0,0,0,11.47,19.16,49.68,49.68,0,0,0,17.23,12,54.92,54.92,0,0,0,21.46,4.17,79.15,79.15,0,0,0,13-1,51.13,51.13,0,0,0,10.51-2.88,48,48,0,0,0,8.93-4.7,68.83,68.83,0,0,0,8.16-6.53,5.85,5.85,0,0,1,1-.63A2.27,2.27,0,0,1,1370.14,458.81Z"/><path class="cls-10" d="M1411.8,408.51h8.06c1.22,0,2.27-.05,3.17-.14a11,11,0,0,0,2.45-.53,7.11,7.11,0,0,0,2-1.11,24.08,24.08,0,0,0,2-1.77l54.82-56.35a8,8,0,0,1,2.83-2.21,8.52,8.52,0,0,1,3.31-.58h7.88l-59.33,61a27.8,27.8,0,0,1-3.22,3,13.1,13.1,0,0,1-3.12,1.73,11.25,11.25,0,0,1,3.65,1.77,19.2,19.2,0,0,1,3.26,3.12l62.5,65.28h-8a5.86,5.86,0,0,1-5.76-2.59l-57.41-58.75c-.7-.7-1.36-1.31-2-1.82a9.29,9.29,0,0,0-2-1.3,9.63,9.63,0,0,0-2.59-.77,24.66,24.66,0,0,0-3.79-.24h-8.74v65.47h-9.89V345.82h9.89Z"/><path class="cls-10" d="M1694.42,345.82,1651.7,481.66h-8.83l-40.13-117.89c-.51-1.59-1-3.26-1.34-5-.39,1.73-.83,3.4-1.35,5l-40.22,117.89h-8.74l-42.81-135.84h8.16a3.36,3.36,0,0,1,3.55,2.6l34.27,111.64c.71,2.56,1.35,5.48,1.92,8.74.32-1.66.64-3.22,1-4.66a37.71,37.71,0,0,1,1.15-4.08l38.4-111.64a4.14,4.14,0,0,1,1.35-1.83,3.59,3.59,0,0,1,2.3-.77H1603a3.34,3.34,0,0,1,2.21.72,4.84,4.84,0,0,1,1.34,1.88L1645,460.06a35.23,35.23,0,0,1,1.2,4c.35,1.48.69,3,1,4.61.32-1.6.62-3.12.91-4.56s.59-2.8.91-4.08l34.28-111.64a3.38,3.38,0,0,1,1.29-1.83,3.79,3.79,0,0,1,2.35-.77Z"/><path class="cls-10" d="M1838.91,413.7a82.25,82.25,0,0,1-4.71,28.55A63.25,63.25,0,0,1,1821,464.14a58.52,58.52,0,0,1-20.49,14,72.64,72.64,0,0,1-52.66,0,58.63,58.63,0,0,1-20.45-14,63.4,63.4,0,0,1-13.25-21.89,88.82,88.82,0,0,1,0-57,63.5,63.5,0,0,1,13.25-21.89,59.13,59.13,0,0,1,20.45-14.06,67.32,67.32,0,0,1,26.3-5,68.42,68.42,0,0,1,26.36,4.94A58.35,58.35,0,0,1,1821,363.29a63.94,63.94,0,0,1,13.25,21.94A82,82,0,0,1,1838.91,413.7Zm-10.18,0a77.33,77.33,0,0,0-3.94-25.54,54.53,54.53,0,0,0-11.13-19.2,48.06,48.06,0,0,0-17.28-12,61.17,61.17,0,0,0-44.45,0,48.51,48.51,0,0,0-17.33,12,54.72,54.72,0,0,0-11.23,19.2,83.86,83.86,0,0,0,0,51.12,54.76,54.76,0,0,0,11.23,19.15,47.89,47.89,0,0,0,17.33,12,61.86,61.86,0,0,0,44.45,0,47.45,47.45,0,0,0,17.28-12,54.57,54.57,0,0,0,11.13-19.15A77.24,77.24,0,0,0,1828.73,413.7Z"/><path class="cls-10" d="M1963.89,481.66h-8.44a6.23,6.23,0,0,1-2.74-.53,5.33,5.33,0,0,1-2.06-2l-43.59-55.11a13.16,13.16,0,0,0-1.58-1.82,6.3,6.3,0,0,0-1.83-1.2,8.93,8.93,0,0,0-2.4-.62,24.86,24.86,0,0,0-3.4-.2h-17.76v61.44h-9.89V345.82H1905q23.43,0,35.09,9.07t11.66,26.65a36.3,36.3,0,0,1-2.69,14.2,33.23,33.23,0,0,1-7.72,11.28,40.24,40.24,0,0,1-12.2,7.92,57.43,57.43,0,0,1-16.08,4.13,15.41,15.41,0,0,1,4.13,3.84Zm-60.28-68.73a55.91,55.91,0,0,0,16.17-2.16,35,35,0,0,0,12.1-6.19,26.83,26.83,0,0,0,7.54-9.7,30.48,30.48,0,0,0,2.59-12.77q0-14.49-9.46-21.5t-27.6-7h-24.86v59.33Z"/><path class="cls-10" d="M1996.63,408.51h8.06c1.22,0,2.27-.05,3.17-.14a11,11,0,0,0,2.45-.53,7.11,7.11,0,0,0,2-1.11,24.08,24.08,0,0,0,2-1.77l54.82-56.35a8,8,0,0,1,2.83-2.21,8.52,8.52,0,0,1,3.31-.58h7.88l-59.33,61a27.8,27.8,0,0,1-3.22,3,13.1,13.1,0,0,1-3.12,1.73,11.25,11.25,0,0,1,3.65,1.77,19.2,19.2,0,0,1,3.26,3.12l62.5,65.28h-8a5.86,5.86,0,0,1-5.76-2.59l-57.41-58.75c-.7-.7-1.36-1.31-2-1.82a9.29,9.29,0,0,0-2-1.3,9.63,9.63,0,0,0-2.59-.77,24.57,24.57,0,0,0-3.79-.24h-8.74v65.47h-9.89V345.82h9.89Z"/><path class="cls-10" d="M1139.36,537.82a77.86,77.86,0,0,1,20.16,2.31,38.17,38.17,0,0,1,14.11,6.76,27.27,27.27,0,0,1,8.25,10.9,37.57,37.57,0,0,1,2.69,14.59,29.24,29.24,0,0,1-1.87,10.37,31.92,31.92,0,0,1-5.38,9.22,34,34,0,0,1-8.64,7.34,41.39,41.39,0,0,1-11.76,4.75q16,2.31,24.63,10.61t8.59,21.84a37.83,37.83,0,0,1-3.07,15.55,31.43,31.43,0,0,1-8.93,11.71,40.61,40.61,0,0,1-14.4,7.35,67.84,67.84,0,0,1-19.39,2.54h-44.07V537.82Zm-29.19,7.78v55.78h29.38a47.44,47.44,0,0,0,16.08-2.41,31.69,31.69,0,0,0,10.94-6.33,24.5,24.5,0,0,0,6.29-8.93,27.27,27.27,0,0,0,2-10.27q0-13.73-8.69-20.78t-26.83-7.06Zm34.08,120.19q17.87,0,27-7.73t9.16-21.74a26.6,26.6,0,0,0-2.44-11.57,24.41,24.41,0,0,0-7.06-8.74,33,33,0,0,0-11.33-5.51,55.61,55.61,0,0,0-15.26-1.92h-34.18v57.21Z"/><path class="cls-10" d="M1231.51,673.66h-9.88V537.82h9.88Z"/><path class="cls-10" d="M1392.31,605.7a82.48,82.48,0,0,1-4.7,28.55,63.25,63.25,0,0,1-13.25,21.89,58.61,58.61,0,0,1-20.49,14,72.64,72.64,0,0,1-52.66,0,58.63,58.63,0,0,1-20.45-14,63.25,63.25,0,0,1-13.25-21.89,88.82,88.82,0,0,1,0-57,63.34,63.34,0,0,1,13.25-21.89,59.13,59.13,0,0,1,20.45-14.06,67.29,67.29,0,0,1,26.3-5,68.45,68.45,0,0,1,26.36,4.94,58.44,58.44,0,0,1,20.49,14.06,63.94,63.94,0,0,1,13.25,21.94A82.22,82.22,0,0,1,1392.31,605.7Zm-10.17,0a77.59,77.59,0,0,0-3.94-25.54,54.53,54.53,0,0,0-11.13-19.2,48.14,48.14,0,0,0-17.28-12.05,61.17,61.17,0,0,0-44.45,0A48.51,48.51,0,0,0,1288,561a54.72,54.72,0,0,0-11.23,19.2,83.86,83.86,0,0,0,0,51.12A54.76,54.76,0,0,0,1288,650.43a47.89,47.89,0,0,0,17.33,12,61.86,61.86,0,0,0,44.45,0,47.53,47.53,0,0,0,17.28-12,54.57,54.57,0,0,0,11.13-19.15A77.5,77.5,0,0,0,1382.14,605.7Z"/><path class="cls-10" d="M1504,546.17h-47.71V673.66h-9.89V546.17h-48v-8.35H1504Z"/><path class="cls-10" d="M1608.41,665.5l-.19,8.16h-81.41V537.82h81.41V546H1536.7v54.91h59.52v8H1536.7V665.5Z"/><path class="cls-10" d="M1733.11,650.81a2.22,2.22,0,0,1,1.63.68l3.84,4.13a65.16,65.16,0,0,1-9.16,8.11,56,56,0,0,1-10.85,6.14,64,64,0,0,1-13,3.94,81,81,0,0,1-15.51,1.39,66,66,0,0,1-25.87-5,57.8,57.8,0,0,1-20.21-14,63.35,63.35,0,0,1-13.1-21.94,83.38,83.38,0,0,1-4.66-28.6,79.64,79.64,0,0,1,4.8-28.23,64.78,64.78,0,0,1,13.44-21.93,59.48,59.48,0,0,1,20.74-14.21,68.72,68.72,0,0,1,26.69-5,65.78,65.78,0,0,1,24.67,4.32,66.46,66.46,0,0,1,19.58,12.19l-3,4.32a2.69,2.69,0,0,1-2.4,1.15c-.77,0-2-.7-3.75-2.11a49.49,49.49,0,0,0-7.2-4.66,60.86,60.86,0,0,0-11.47-4.65,56.3,56.3,0,0,0-16.46-2.12,58.27,58.27,0,0,0-22.51,4.23,49.68,49.68,0,0,0-17.57,12.09,55.63,55.63,0,0,0-11.47,19.2,80.94,80.94,0,0,0,0,51.17,56.18,56.18,0,0,0,11.48,19.16,49.59,49.59,0,0,0,17.23,12,54.83,54.83,0,0,0,21.45,4.17,79.07,79.07,0,0,0,13-1,51,51,0,0,0,10.51-2.88,47.67,47.67,0,0,0,8.93-4.7,68.83,68.83,0,0,0,8.16-6.53,5.85,5.85,0,0,1,1-.63A2.27,2.27,0,0,1,1733.11,650.81Z"/><path class="cls-10" d="M1869.72,537.82V673.66h-9.89V608.58h-85.06v65.08h-9.88V537.82h9.88v63.36h85.06V537.82Z"/></g></svg>